<?xml version="1.0" encoding="utf-8"?>
<!-- Generator: Adobe Illustrator 23.0.6, SVG Export Plug-In . SVG Version: 6.00 Build 0)  -->
<svg version="1.1" id="Layer_1" xmlns="http://www.w3.org/2000/svg" xmlns:xlink="http://www.w3.org/1999/xlink" x="0px" y="0px"
	 viewBox="0 0 637.7 637.7" style="enable-background:new 0 0 637.7 637.7;" xml:space="preserve">
<style type="text/css">
	.st0{fill:none;}
	.st1{fill:url(#New_Pattern_Swatch_2);}
	.st2{filter:url(#Adobe_OpacityMaskFilter);}
	.st3{opacity:0.3;mask:url(#SVGID_3_);}
	.st4{fill:#FE003C;}
	.st5{fill:#CC053E;}
</style>
<pattern  x="269.2" y="269.2" width="635" height="635" patternUnits="userSpaceOnUse" id="New_Pattern_Swatch_2" viewBox="0 -635 635 635" style="overflow:visible;">
	<g>
		<rect y="-635" class="st0" width="635" height="635"/>
		<path class="st0" d="M571.7-635H64.3c-2.7,0-5.4,1.1-7.3,3L3-578c-1.9,1.9-3,4.6-3,7.3v507.4c0,2.7,1.1,5.4,3,7.3L56-3
			c1.9,1.9,4.6,3,7.3,3h509.4c2.7,0,5.4-1.1,7.3-3L632-55c1.9-1.9,3-4.6,3-7.3v-509.4c0-2.7-1.1-5.4-3-7.3L579-632
			C577.1-633.9,574.5-635,571.7-635z"/>
	</g>
</pattern>
<g>
	<defs>
		<path id="SVGID_1_" d="M571.9,0.2H64.5c-2.7,0-5.4,1.1-7.3,3L3.3,57.2c-1.9,1.9-3,4.6-3,7.3v507.4c0,2.7,1.1,5.4,3,7.3l52.9,52.9
			c1.9,1.9,4.6,3,7.3,3h509.4c2.7,0,5.4-1.1,7.3-3l51.9-51.9c1.9-1.9,3-4.6,3-7.3V63.5c0-2.7-1.1-5.4-3-7.3L579.3,3.3
			C577.3,1.3,574.7,0.2,571.9,0.2z"/>
	</defs>
	<clipPath id="SVGID_2_">
		<use xlink:href="#SVGID_1_"  style="overflow:visible;"/>
	</clipPath>
	<g transform="matrix(1 0 0 1 7.629395e-06 9.536743e-07)" style="display:none;clip-path:url(#SVGID_2_);">
		
			<image style="display:inline;overflow:visible;" width="1001" height="847" xlink:href="johnny-blurred-background.png"  transform="matrix(0.8749 0 0 0.8749 -113.762 -15.762)">
		</image>
	</g>
	<g style="clip-path:url(#SVGID_2_);">
		
			<image style="overflow:visible;" width="1001" height="847" xlink:href="jackie-blurred-background.png"  transform="matrix(1 0 0 1 -155.5807 -1.9214)">
		</image>
	</g>
</g>
<g>
	<g>
		<path class="st1" d="M571.9,0.2H64.5c-2.7,0-5.4,1.1-7.3,3L3.3,57.2c-1.9,1.9-3,4.6-3,7.3v507.4c0,2.7,1.1,5.4,3,7.3l52.9,52.9
			c1.9,1.9,4.6,3,7.3,3h509.4c2.7,0,5.4-1.1,7.3-3l51.9-51.9c1.9-1.9,3-4.6,3-7.3V63.5c0-2.7-1.1-5.4-3-7.3L579.3,3.3
			C577.3,1.3,574.7,0.2,571.9,0.2z"/>
	</g>
	<defs>
		<filter id="Adobe_OpacityMaskFilter" filterUnits="userSpaceOnUse" x="0.2" y="0.2" width="635" height="635">
			
				<feColorMatrix  type="matrix" values="-1 0 0 0 1  0 -1 0 0 1  0 0 -1 0 1  0 0 0 1 0" color-interpolation-filters="sRGB" result="source"/>
		</filter>
	</defs>
	<mask maskUnits="userSpaceOnUse" x="0.2" y="0.2" width="635" height="635" id="SVGID_3_">
		<g class="st2">
			
				<image style="overflow:visible;" width="639" height="639" xlink:href="C41D6E1A.jpg"  transform="matrix(1 0 0 1 -1.762 -1.762)">
			</image>
		</g>
	</mask>
	<g class="st3">
		<path class="st4" d="M571.9,0.2H64.5c-2.7,0-5.4,1.1-7.3,3L3.3,57.2c-1.9,1.9-3,4.6-3,7.3v507.4c0,2.7,1.1,5.4,3,7.3l52.9,52.9
			c1.9,1.9,4.6,3,7.3,3h509.4c2.7,0,5.4-1.1,7.3-3l51.9-51.9c1.9-1.9,3-4.6,3-7.3V63.5c0-2.7-1.1-5.4-3-7.3L579.3,3.3
			C577.3,1.3,574.7,0.2,571.9,0.2z"/>
	</g>
</g>
<circle class="st5" cx="630.7" cy="6.7" r="4.5"/>
<circle class="st5" cx="6.7" cy="6.7" r="4.5"/>
<circle class="st5" cx="630.7" cy="629.7" r="4.5"/>
<circle class="st5" cx="6.7" cy="629.7" r="4.5"/>
<rect x="0.2" y="0.2" class="st0" width="637" height="56"/>
</svg>
