<svg 
 xmlns="http://www.w3.org/2000/svg"
 xmlns:xlink="http://www.w3.org/1999/xlink"
 width="30px" height="26px">
<path fill-rule="evenodd"  fill="rgb(140, 140, 140)"
 d="M26.603,9.201 C28.478,9.203 29.998,10.775 30.000,12.714 C30.006,13.983 29.345,15.155 28.274,15.775 C28.322,16.095 28.348,16.420 28.348,16.749 C28.347,21.850 22.331,26.000 14.938,26.000 L14.938,26.000 C7.544,26.000 1.529,21.850 1.529,16.749 C1.529,16.396 1.558,16.048 1.614,15.705 C0.611,15.065 0.000,13.933 -0.000,12.714 C0.002,10.775 1.522,9.203 3.397,9.201 C4.234,9.201 5.031,9.517 5.648,10.083 C7.974,8.539 11.102,7.568 14.553,7.501 L16.819,0.351 L17.313,0.471 L17.325,0.474 L22.605,1.760 C23.046,0.694 24.058,0.001 25.179,0.000 C26.723,0.002 27.975,1.296 27.976,2.893 C27.974,4.489 26.723,5.783 25.179,5.785 C23.636,5.783 22.386,4.492 22.382,2.896 L17.564,1.723 L15.730,7.513 C19.055,7.647 22.058,8.622 24.300,10.132 C24.927,9.532 25.749,9.199 26.603,9.201 ZM25.179,4.625 C26.102,4.625 26.854,3.848 26.854,2.892 C26.854,1.936 26.103,1.159 25.179,1.159 C24.255,1.159 23.503,1.936 23.503,2.892 C23.503,3.848 24.255,4.625 25.179,4.625 ZM28.878,12.714 C28.877,11.414 27.858,10.361 26.602,10.360 C26.109,10.359 25.630,10.524 25.237,10.831 L25.237,10.831 C26.537,11.906 27.491,13.186 27.978,14.591 C28.548,14.147 28.881,13.451 28.878,12.714 ZM3.397,10.360 C2.140,10.361 1.122,11.414 1.121,12.714 C1.121,13.417 1.424,14.070 1.926,14.510 C2.430,13.117 3.393,11.847 4.698,10.782 C4.316,10.507 3.862,10.360 3.397,10.360 ZM23.951,11.254 C21.705,9.657 18.496,8.656 14.938,8.656 C11.415,8.656 8.233,9.638 5.991,11.207 C5.930,11.279 5.852,11.335 5.766,11.369 C4.256,12.484 3.207,13.875 2.818,15.411 C2.816,15.488 2.800,15.564 2.771,15.634 C2.768,15.640 2.766,15.646 2.762,15.652 C2.688,16.013 2.650,16.380 2.650,16.749 C2.650,21.211 8.162,24.841 14.938,24.841 C21.713,24.841 27.225,21.211 27.225,16.749 C27.225,16.394 27.190,16.045 27.122,15.702 C27.086,15.623 27.067,15.537 27.067,15.449 C26.692,13.927 25.669,12.544 24.192,11.430 C24.098,11.395 24.014,11.334 23.951,11.254 ZM19.544,17.202 C18.401,17.202 17.442,16.245 17.442,15.064 C17.442,13.883 18.401,12.893 19.544,12.893 L19.544,12.893 C20.686,12.893 21.611,13.883 21.611,15.064 C21.611,16.245 20.686,17.202 19.544,17.202 ZM19.834,20.331 C20.053,20.557 20.053,20.924 19.834,21.150 C18.825,22.194 17.243,22.701 14.999,22.701 L14.999,22.701 C12.754,22.701 11.172,22.194 10.164,21.150 C9.945,20.924 9.945,20.557 10.164,20.331 C10.383,20.104 10.738,20.104 10.957,20.331 C11.744,21.145 13.066,21.542 14.999,21.542 C16.931,21.542 18.254,21.145 19.042,20.331 C19.261,20.105 19.616,20.105 19.834,20.331 ZM10.487,17.202 C9.345,17.202 8.388,16.244 8.388,15.064 C8.388,13.884 9.346,12.893 10.487,12.893 L10.487,12.893 C11.628,12.893 12.554,13.884 12.554,15.064 C12.554,16.244 11.629,17.202 10.487,17.202 Z"/>
</svg>