<?xml version="1.0" encoding="utf-8"?>
<!-- Generator: Adobe Illustrator 23.0.6, SVG Export Plug-In . SVG Version: 6.00 Build 0)  -->
<svg version="1.1" id="Layer_1" xmlns="http://www.w3.org/2000/svg" xmlns:xlink="http://www.w3.org/1999/xlink" x="0px" y="0px"
	 viewBox="0 0 24 24" style="enable-background:new 0 0 24 24;" xml:space="preserve">
<style type="text/css">
	.st0{fill-rule:evenodd;clip-rule:evenodd;fill:#252525;}
</style>
<path class="st0" d="M23.9,16.9c-0.1,1.3-0.3,2.1-0.6,2.9c-0.6,1.6-1.9,2.9-3.5,3.5c-0.8,0.3-1.6,0.5-2.9,0.6C15.7,24,15.3,24,12,24
	s-3.7,0-4.9-0.1c-1.3-0.1-2.1-0.3-2.9-0.6C3.3,23.1,2.6,22.6,2,22c-0.6-0.6-1.1-1.3-1.4-2.1c-0.3-0.8-0.5-1.6-0.6-2.9
	C0,15.7,0,15.3,0,12c0-3.3,0-3.7,0.1-5c0.1-1.3,0.3-2.1,0.6-2.9C0.9,3.3,1.4,2.6,2,2c0.6-0.6,1.3-1.1,2.1-1.4
	c0.8-0.3,1.6-0.5,2.9-0.6C8.3,0,8.7,0,12,0s3.7,0,5,0.1c1.3,0.1,2.1,0.3,2.9,0.6C20.7,0.9,21.4,1.4,22,2c0.6,0.6,1.1,1.3,1.4,2.1
	c0.3,0.8,0.5,1.6,0.6,2.9C24,8.3,24,8.7,24,12C24,15.3,24,15.7,23.9,16.9z M21.8,7.2c-0.1-1.2-0.2-1.8-0.4-2.2
	c-0.2-0.5-0.5-1-0.9-1.4c-0.4-0.4-0.9-0.7-1.4-0.9c-0.4-0.2-1.1-0.4-2.2-0.4c-1.3-0.1-1.6-0.1-4.8-0.1c-3.2,0-3.6,0-4.8,0.1
	C6,2.3,5.4,2.5,4.9,2.7c-0.5,0.2-1,0.5-1.4,0.9C3.2,3.9,2.9,4.4,2.7,4.9C2.5,5.4,2.3,6,2.2,7.2C2.2,8.4,2.2,8.8,2.2,12
	c0,3.2,0,3.6,0.1,4.8c0.1,1.2,0.2,1.8,0.4,2.2c0.2,0.5,0.5,1,0.9,1.4c0.4,0.4,0.9,0.7,1.4,0.9c0.4,0.2,1.1,0.4,2.2,0.4
	c1.3,0.1,1.6,0.1,4.8,0.1c3.2,0,3.6,0,4.8-0.1c1.2-0.1,1.8-0.2,2.2-0.4c1-0.4,1.9-1.2,2.3-2.3c0.2-0.4,0.4-1.1,0.4-2.2
	c0.1-1.3,0.1-1.6,0.1-4.8C21.8,8.8,21.8,8.4,21.8,7.2z M18.4,7C17.6,7,17,6.4,17,5.6s0.6-1.4,1.4-1.4c0.8,0,1.4,0.6,1.4,1.4
	S19.2,7,18.4,7z M12,18.2c-3.4,0-6.2-2.8-6.2-6.2c0-3.4,2.8-6.2,6.2-6.2c3.4,0,6.2,2.8,6.2,6.2C18.2,15.4,15.4,18.2,12,18.2z M12,8
	c-2.2,0-4,1.8-4,4c0,2.2,1.8,4,4,4c2.2,0,4-1.8,4-4C16,9.8,14.2,8,12,8z"/>
</svg>
