<?xml version="1.0" encoding="utf-8"?>
<!-- Generator: Adobe Illustrator 23.0.6, SVG Export Plug-In . SVG Version: 6.00 Build 0)  -->
<svg version="1.1" id="Layer_1" xmlns="http://www.w3.org/2000/svg" xmlns:xlink="http://www.w3.org/1999/xlink" x="0px" y="0px"
	 viewBox="0 0 99.2 99.2" style="enable-background:new 0 0 99.2 99.2;" xml:space="preserve">
<style type="text/css">
	.st0{fill:#494949;}
	.st1{fill:#FE003C;}
	.st2{fill:#CC053E;}
</style>
<g>
	<path class="st0" d="M81.1,5H17.9c-1.4,0-2.7,0.5-3.7,1.5l-7.7,7.7c-1,1-1.5,2.3-1.5,3.7v63.1c0,1.4,0.5,2.7,1.5,3.7l7.7,7.7
		c1,1,2.3,1.5,3.7,1.5h63.1c1.4,0,2.7-0.5,3.7-1.5l7.7-7.7c1-1,1.5-2.3,1.5-3.7V17.9c0-1.4-0.5-2.7-1.5-3.7l-7.7-7.7
		C83.8,5.5,82.4,5,81.1,5z"/>
</g>
<polygon class="st1" points="58.7,49.1 40,38.3 40,59.8 "/>
<circle class="st2" cx="96" cy="3" r="3"/>
<circle class="st2" cx="3" cy="3" r="3"/>
<circle class="st2" cx="3" cy="96" r="3"/>
<circle class="st2" cx="96" cy="96" r="3"/>
</svg>
