<?xml version="1.0" encoding="utf-8"?>
<!-- Generator: Adobe Illustrator 23.0.6, SVG Export Plug-In . SVG Version: 6.00 Build 0)  -->
<svg version="1.1" id="Capa_1" xmlns="http://www.w3.org/2000/svg" xmlns:xlink="http://www.w3.org/1999/xlink" x="0px" y="0px"
	 viewBox="0 0 483 483" style="enable-background:new 0 0 483 483;" xml:space="preserve">
<style type="text/css">
	.st0{fill:#FCEE0A;}
</style>
<g>
	<path class="st0" d="M395.7,0c-48.2,0-87.3,39.1-87.3,87.3c0,2,0.2,4,0.3,6L147.5,169c-15.7-15-36.9-24.2-60.2-24.2
		C39.1,144.8,0,183.8,0,232.1c0,48.2,39.1,87.3,87.3,87.3c15.2,0,29.5-3.9,41.9-10.7l69.8,58.8c-3.1,8.9-4.8,18.4-4.8,28.3
		c0,48.2,39.1,87.3,87.3,87.3c48.2,0,87.3-39.1,87.3-87.3s-39.1-87.3-87.3-87.3c-15.2,0-29.5,3.9-41.9,10.7l-69.8-58.8
		c3.1-8.9,4.8-18.4,4.8-28.3c0-2-0.2-4-0.3-6l161.2-75.7c15.7,15,36.9,24.2,60.2,24.2c48.2,0,87.3-39.1,87.3-87.3S443.9,0,395.7,0z"
		/>
</g>
</svg>
